<svg width="32" height="32" viewBox="0 0 32 32" fill="none" xmlns="http://www.w3.org/2000/svg">
	<g clip-path="url(#clip0_13_15205)">
		<rect width="32" height="32" fill="white" />
		<rect width="32" height="32" fill="#D69E3D" />
		<path fill-rule="evenodd" clip-rule="evenodd" d="M15.6309 18.1597C15.9988 15.6703 17.5941 13.2164 19.9553 12.2693C20.2239 12.1617 20.2143 11.7778 19.9406 11.6836C17.6807 10.906 14.4793 12.1013 12.1341 14.7909C9.64497 17.6456 8.95466 21.2266 10.3378 23.3267C10.4054 23.4321 10.5029 23.5148 10.6178 23.5644C10.7328 23.614 10.8599 23.6281 10.9829 23.605C13.992 23.0772 15.1833 21.1879 15.6309 18.1598V18.1597ZM16.5139 18.2903C16.1005 21.0872 14.9059 23.3619 12.3351 24.2154C12.0466 24.3112 12.0519 24.7229 12.3427 24.8113C14.5935 25.495 17.7129 24.2943 20.0106 21.6592C22.4965 18.8083 23.1884 15.2332 21.8126 13.1319C21.741 13.0199 21.6357 12.9334 21.5119 12.8848C21.3881 12.8362 21.2522 12.828 21.1234 12.8613C18.5526 13.4976 16.9007 15.6731 16.5138 18.2902L16.5139 18.2903Z" fill="white" />
		<path d="M12.9494 12.4562C13.7989 10.9094 13.9472 8.86208 13.0293 7.33231C13.0063 7.29397 12.9956 7.24952 12.9986 7.20492C13.0016 7.16031 13.0181 7.11769 13.046 7.08276C13.0739 7.04782 13.1118 7.02224 13.1546 7.00945C13.1975 6.99666 13.2432 6.99727 13.2857 7.01119C14.6478 7.4588 15.7831 9.00536 16.1896 11.0061C14.8764 11.4549 13.6344 12.2412 12.6067 13.1444C12.7061 12.9195 12.8203 12.6902 12.9493 12.4562L12.9494 12.4562ZM12.4008 12.1551C12.0477 12.7979 11.785 13.4462 11.648 14.0871C11.6005 14.1396 11.5537 14.1921 11.5075 14.2447C11.0094 14.815 10.5656 15.4307 10.1819 16.0836C9.54582 15.1665 9.11321 13.9329 9.01897 12.5557C8.8383 9.90941 9.96647 7.61845 11.6258 7.02717C11.7134 6.995 11.8088 6.9913 11.8986 7.0166C11.9884 7.0419 12.0679 7.0949 12.1257 7.16805C13.2925 8.61301 13.2936 10.5286 12.4008 12.1551L12.4008 12.1551Z" fill="white" />
	</g>
	<defs>
		<clipPath id="clip0_13_15205">
			<rect width="32" height="32" fill="white" />
		</clipPath>
	</defs>
</svg>
