<svg width="207" height="50" viewBox="0 0 207 50" fill="none" xmlns="http://www.w3.org/2000/svg">
<path fill-rule="evenodd" clip-rule="evenodd" d="M18.2559 30.7005C19.2687 23.852 23.6609 17.1014 30.1615 14.4959C30.9012 14.1996 30.8747 13.1436 30.1211 12.8845C23.8991 10.7453 15.0853 14.0337 8.62859 21.4329C1.77561 29.2862 -0.124911 39.1378 3.68298 44.9153C3.86916 45.2051 4.13765 45.4327 4.4541 45.5691C4.77055 45.7055 5.12053 45.7443 5.45922 45.6807C13.7436 44.2287 17.0236 39.0314 18.2559 30.7007V30.7005ZM20.6868 31.0598C19.5487 38.7543 16.2597 45.0121 9.18191 47.36C8.38767 47.6235 8.4022 48.7562 9.20294 48.9993C15.3997 50.8803 23.988 47.5771 30.3139 40.3277C37.1578 32.4848 39.0628 22.6495 35.2751 16.8689C35.0778 16.5607 34.788 16.3227 34.4472 16.189C34.1064 16.0553 33.732 16.0327 33.3776 16.1244C26.2996 17.8749 21.7519 23.8598 20.6866 31.0594L20.6868 31.0598Z" fill="white"/>
<path d="M10.8732 15.0102C13.2121 10.755 13.6203 5.12266 11.0932 0.914203C11.03 0.808718 11.0005 0.686436 11.0087 0.563733C11.0169 0.44103 11.0625 0.323771 11.1393 0.227666C11.2161 0.131561 11.3204 0.0611966 11.4383 0.0260078C11.5563 -0.00918112 11.6821 -0.00751831 11.7991 0.0307746C15.5493 1.26218 18.6749 5.51683 19.7941 11.0209C16.1787 12.2555 12.7592 14.4187 9.92991 16.9034C10.2036 16.285 10.518 15.654 10.8731 15.0104L10.8732 15.0102ZM9.36292 14.182C8.39088 15.9503 7.66741 17.7338 7.29045 19.4969C7.15969 19.6413 7.03074 19.7858 6.90362 19.9304C5.53208 21.4995 4.31021 23.1932 3.25393 24.9894C1.50273 22.4665 0.311698 19.0729 0.0522248 15.284C-0.445198 8.00392 2.66085 1.7014 7.2293 0.0747346C7.47032 -0.0137598 7.73315 -0.0239371 7.98029 0.0456618C8.22744 0.115261 8.44627 0.261076 8.60557 0.462305C11.818 4.43746 11.8211 9.7074 9.36301 14.1818L9.36292 14.182Z" fill="white"/>
<path d="M58.9193 34.0353C61.4034 34.0353 63.0594 33.6213 65.0191 32.6553C65.3503 32.4897 65.4055 32.2689 65.2951 32.0205L64.329 29.7296C64.191 29.3984 63.9978 29.2604 63.6942 29.426C61.8726 30.2816 60.6306 30.6128 59.2505 30.6128C55.9936 30.6128 53.9512 28.1288 53.9512 24.3751C53.9512 20.6214 55.9108 18.1373 58.9193 18.1373C60.5202 18.1373 62.0658 18.7169 63.5286 19.6002C63.8322 19.7658 64.0254 19.6554 64.191 19.3242L65.3227 17.0609C65.4607 16.8125 65.4331 16.5917 65.1019 16.3985C63.3078 15.3497 61.431 14.7148 58.9193 14.7148C53.4268 14.7148 49.7559 18.4409 49.7559 24.3751C49.7559 30.5576 53.62 34.0353 58.9193 34.0353Z" fill="white"/>
<path d="M71.1169 33.1245L72.6901 28.8188H79.9767L81.5499 33.1521C81.7155 33.6213 81.9915 33.7593 82.4883 33.7593H85.2484C85.8004 33.7593 86.0488 33.5385 85.828 32.9865L78.9003 15.4325C78.7623 15.1289 78.5415 14.9909 78.2102 14.9909H74.6498C74.3185 14.9909 74.0977 15.1841 73.9873 15.4325L67.0596 32.9865C66.8388 33.5661 67.0596 33.7593 67.6392 33.7593H70.1784C70.6753 33.7593 70.9789 33.5385 71.1169 33.1245ZM73.8217 25.6723L76.3334 18.7997L78.8175 25.6723H73.8217Z" fill="white"/>
<path d="M88.8604 33.3177C88.8604 33.5661 89.0812 33.7593 89.3297 33.7593H92.3657C92.6693 33.7593 92.8349 33.5661 92.8349 33.3177V26.6107H99.7075C99.9835 26.6107 100.149 26.3899 100.149 26.1415V23.7403C100.149 23.4367 99.9835 23.2711 99.7075 23.2711H92.8349V18.3029H101.419C101.695 18.3029 101.888 18.1097 101.888 17.8613V15.4601C101.888 15.1565 101.695 14.9909 101.419 14.9909H89.3297C89.0812 14.9909 88.8604 15.1841 88.8604 15.4325V33.3177Z" fill="white"/>
<path d="M104.911 33.3177C104.911 33.5661 105.132 33.7593 105.38 33.7593H108.416C108.72 33.7593 108.885 33.5661 108.885 33.3177V26.6107H115.758C116.034 26.6107 116.2 26.3899 116.2 26.1415V23.7403C116.2 23.4367 116.034 23.2711 115.758 23.2711H108.885V18.3029H117.469C117.745 18.3029 117.938 18.1097 117.938 17.8613V15.4601C117.938 15.1565 117.745 14.9909 117.469 14.9909H105.38C105.132 14.9909 104.911 15.1841 104.911 15.4325V33.3177Z" fill="white"/>
<path d="M120.961 33.3177C120.961 33.5661 121.182 33.7593 121.431 33.7593H134.292C134.568 33.7593 134.734 33.5661 134.734 33.2901V30.8888C134.734 30.6128 134.568 30.4472 134.292 30.4472H124.936V25.5619H131.532C131.808 25.5619 131.974 25.3687 131.974 25.0927V22.719C131.974 22.4154 131.808 22.2498 131.532 22.2498H124.936V18.3029H134.292C134.568 18.3029 134.734 18.1097 134.734 17.8613V15.4601C134.734 15.1565 134.568 14.9909 134.292 14.9909H121.431C121.182 14.9909 120.961 15.1841 120.961 15.4325V33.3177Z" fill="white"/>
<path d="M138.144 33.3177C138.144 33.5661 138.365 33.7593 138.613 33.7593H141.649C141.953 33.7593 142.118 33.5661 142.118 33.3177V15.4325C142.118 15.1841 141.953 14.9909 141.649 14.9909H138.613C138.365 14.9909 138.144 15.1841 138.144 15.4325V33.3177Z" fill="white"/>
<path d="M150.509 33.3177V20.8974L158.348 33.3453C158.514 33.6213 158.707 33.7593 159.038 33.7593H162.102C162.405 33.7593 162.571 33.5661 162.571 33.3177V15.4325C162.571 15.1841 162.405 14.9909 162.102 14.9909H159.286C158.983 14.9909 158.817 15.1841 158.817 15.4325V27.8804L151.117 15.3773C150.951 15.1013 150.758 14.9909 150.399 14.9909H147.197C146.949 14.9909 146.728 15.1841 146.728 15.4325V33.3177C146.728 33.5661 146.949 33.7593 147.197 33.7593H150.04C150.316 33.7593 150.509 33.5661 150.509 33.3177Z" fill="white"/>
<path d="M167.145 33.3177C167.145 33.5661 167.366 33.7593 167.614 33.7593H180.476C180.752 33.7593 180.918 33.5661 180.918 33.2901V30.8888C180.918 30.6128 180.752 30.4472 180.476 30.4472H171.119V25.5619H177.716C177.992 25.5619 178.158 25.3687 178.158 25.0927V22.719C178.158 22.4154 177.992 22.2498 177.716 22.2498H171.119V18.3029H180.476C180.752 18.3029 180.918 18.1097 180.918 17.8613V15.4601C180.918 15.1565 180.752 14.9909 180.476 14.9909H167.614C167.366 14.9909 167.145 15.1841 167.145 15.4325V33.3177Z" fill="white"/>
<path d="M188.539 32.8761C188.125 33.4557 188.29 33.7593 188.842 33.7593H191.519C192.016 33.7593 192.32 33.6213 192.623 33.1521L196.957 26.7487L201.456 33.1521C201.732 33.5661 202.063 33.7593 202.56 33.7593H205.623C206.175 33.7593 206.369 33.4557 205.955 32.8761L199.634 23.9059L205.154 15.8465C205.485 15.3497 205.375 14.9909 204.768 14.9909H202.118C201.594 14.9909 201.345 15.1013 201.042 15.5981L197.481 20.8146L193.81 15.5981C193.507 15.1289 193.258 14.9909 192.734 14.9909H189.643C189.035 14.9909 188.897 15.2945 189.284 15.8465L194.776 23.6575L188.539 32.8761Z" fill="white"/>
</svg>
